<mxfile host="app.diagrams.net" modified="2023-09-18T08:43:41.411Z" agent="Mozilla/5.0 (Windows NT 10.0; Win64; x64) AppleWebKit/537.36 (KHTML, like Gecko) Chrome/116.0.0.0 Safari/537.36" etag="5aWaqPB0ePa-exlbA4wO" version="21.7.1" type="github">
  <diagram name="Seite-1" id="wFa6TRxckOC5gRSqX6jd">
    <mxGraphModel dx="330" dy="200" grid="1" gridSize="10" guides="1" tooltips="1" connect="1" arrows="1" fold="1" page="1" pageScale="1" pageWidth="827" pageHeight="1169" math="0" shadow="0">
      <root>
        <mxCell id="0" />
        <mxCell id="1" parent="0" />
        <mxCell id="1xQ-LSOYnKwFHOgT6hic-2" value="100 kÎ©" style="rounded=0;whiteSpace=wrap;html=1;fontStyle=1;fontSize=21;" vertex="1" parent="1">
          <mxGeometry x="440" y="250" width="120" height="60" as="geometry" />
        </mxCell>
        <mxCell id="1xQ-LSOYnKwFHOgT6hic-4" value="" style="endArrow=none;html=1;rounded=0;strokeWidth=2;" edge="1" parent="1" source="1xQ-LSOYnKwFHOgT6hic-18">
          <mxGeometry width="50" height="50" relative="1" as="geometry">
            <mxPoint x="360" y="280" as="sourcePoint" />
            <mxPoint x="440" y="279.76" as="targetPoint" />
          </mxGeometry>
        </mxCell>
        <mxCell id="1xQ-LSOYnKwFHOgT6hic-23" value="Pullup-Widerstand" style="edgeLabel;html=1;align=center;verticalAlign=middle;resizable=0;points=[];" vertex="1" connectable="0" parent="1xQ-LSOYnKwFHOgT6hic-4">
          <mxGeometry x="-0.084" y="-1" relative="1" as="geometry">
            <mxPoint x="79" y="-41" as="offset" />
          </mxGeometry>
        </mxCell>
        <mxCell id="1xQ-LSOYnKwFHOgT6hic-5" value="" style="endArrow=none;html=1;rounded=0;strokeWidth=2;" edge="1" parent="1">
          <mxGeometry width="50" height="50" relative="1" as="geometry">
            <mxPoint x="560" y="280" as="sourcePoint" />
            <mxPoint x="640" y="279.76" as="targetPoint" />
          </mxGeometry>
        </mxCell>
        <mxCell id="1xQ-LSOYnKwFHOgT6hic-7" value="VCC (3,3V)" style="edgeLabel;html=1;align=center;verticalAlign=middle;resizable=0;points=[];" vertex="1" connectable="0" parent="1xQ-LSOYnKwFHOgT6hic-5">
          <mxGeometry x="0.294" y="-1" relative="1" as="geometry">
            <mxPoint x="38" y="-21" as="offset" />
          </mxGeometry>
        </mxCell>
        <mxCell id="1xQ-LSOYnKwFHOgT6hic-6" value="+" style="ellipse;whiteSpace=wrap;html=1;aspect=fixed;fontSize=18;" vertex="1" parent="1">
          <mxGeometry x="640" y="270" width="20" height="20" as="geometry" />
        </mxCell>
        <mxCell id="1xQ-LSOYnKwFHOgT6hic-8" value="" style="endArrow=none;html=1;rounded=0;strokeWidth=2;" edge="1" parent="1">
          <mxGeometry width="50" height="50" relative="1" as="geometry">
            <mxPoint x="360" y="280" as="sourcePoint" />
            <mxPoint x="360" y="260" as="targetPoint" />
          </mxGeometry>
        </mxCell>
        <mxCell id="1xQ-LSOYnKwFHOgT6hic-9" value="" style="endArrow=none;html=1;rounded=0;strokeWidth=2;" edge="1" parent="1">
          <mxGeometry width="50" height="50" relative="1" as="geometry">
            <mxPoint x="160" y="300" as="sourcePoint" />
            <mxPoint x="160" y="260" as="targetPoint" />
          </mxGeometry>
        </mxCell>
        <mxCell id="1xQ-LSOYnKwFHOgT6hic-11" value="" style="endArrow=none;html=1;rounded=0;strokeWidth=2;" edge="1" parent="1">
          <mxGeometry width="50" height="50" relative="1" as="geometry">
            <mxPoint x="240" y="280.12" as="sourcePoint" />
            <mxPoint x="360" y="240" as="targetPoint" />
          </mxGeometry>
        </mxCell>
        <mxCell id="1xQ-LSOYnKwFHOgT6hic-12" value="" style="endArrow=none;html=1;rounded=0;strokeWidth=2;" edge="1" parent="1">
          <mxGeometry width="50" height="50" relative="1" as="geometry">
            <mxPoint x="160" y="280.12" as="sourcePoint" />
            <mxPoint x="240" y="279.88" as="targetPoint" />
          </mxGeometry>
        </mxCell>
        <mxCell id="1xQ-LSOYnKwFHOgT6hic-16" value="GND" style="edgeLabel;html=1;align=center;verticalAlign=middle;resizable=0;points=[];" vertex="1" connectable="0" parent="1xQ-LSOYnKwFHOgT6hic-12">
          <mxGeometry x="-0.7738" relative="1" as="geometry">
            <mxPoint x="-19" y="-30" as="offset" />
          </mxGeometry>
        </mxCell>
        <mxCell id="1xQ-LSOYnKwFHOgT6hic-14" value="" style="endArrow=none;html=1;rounded=0;strokeWidth=2;" edge="1" parent="1">
          <mxGeometry width="50" height="50" relative="1" as="geometry">
            <mxPoint x="155" y="295" as="sourcePoint" />
            <mxPoint x="155" y="265" as="targetPoint" />
          </mxGeometry>
        </mxCell>
        <mxCell id="1xQ-LSOYnKwFHOgT6hic-15" value="" style="endArrow=none;html=1;rounded=0;strokeWidth=2;" edge="1" parent="1">
          <mxGeometry width="50" height="50" relative="1" as="geometry">
            <mxPoint x="151" y="290" as="sourcePoint" />
            <mxPoint x="151" y="270" as="targetPoint" />
          </mxGeometry>
        </mxCell>
        <mxCell id="1xQ-LSOYnKwFHOgT6hic-17" value="" style="endArrow=none;html=1;rounded=0;strokeWidth=2;" edge="1" parent="1">
          <mxGeometry width="50" height="50" relative="1" as="geometry">
            <mxPoint x="400" y="360" as="sourcePoint" />
            <mxPoint x="400" y="279.76" as="targetPoint" />
          </mxGeometry>
        </mxCell>
        <mxCell id="1xQ-LSOYnKwFHOgT6hic-22" value="GPIO" style="edgeLabel;html=1;align=center;verticalAlign=middle;resizable=0;points=[];" vertex="1" connectable="0" parent="1xQ-LSOYnKwFHOgT6hic-17">
          <mxGeometry x="-0.5015" y="-1" relative="1" as="geometry">
            <mxPoint x="-1" y="50" as="offset" />
          </mxGeometry>
        </mxCell>
        <mxCell id="1xQ-LSOYnKwFHOgT6hic-19" value="" style="endArrow=none;html=1;rounded=0;strokeWidth=2;" edge="1" parent="1" target="1xQ-LSOYnKwFHOgT6hic-18">
          <mxGeometry width="50" height="50" relative="1" as="geometry">
            <mxPoint x="360" y="280" as="sourcePoint" />
            <mxPoint x="440" y="279.76" as="targetPoint" />
          </mxGeometry>
        </mxCell>
        <mxCell id="1xQ-LSOYnKwFHOgT6hic-18" value="" style="ellipse;whiteSpace=wrap;html=1;aspect=fixed;fillColor=#000000;" vertex="1" parent="1">
          <mxGeometry x="395" y="275" width="10" height="10" as="geometry" />
        </mxCell>
        <mxCell id="1xQ-LSOYnKwFHOgT6hic-21" value="" style="ellipse;whiteSpace=wrap;html=1;aspect=fixed;fontSize=18;" vertex="1" parent="1">
          <mxGeometry x="390" y="360" width="20" height="20" as="geometry" />
        </mxCell>
      </root>
    </mxGraphModel>
  </diagram>
</mxfile>
